# xmcd CD database file
#
# Track frame offsets:
#	150
#	16519
#	36800
#	61034
#	76431
#	95343
#	110622
#	131634
#	160382
#	183338
#	204538
#	224387
#
# Disc length: 3279 seconds
#
# Revision: 1
# Processed by: cddbd v1.4PL0 Copyright (c) Steve Scherf et al.
# Submitted via: CDex 1.50beta9
#
DISCID=9a0ccd0c
DTITLE=Eddie Torres And His Mambo Kings Orchestra - Dance City 
DYEAR=1994
DGENRE=Salsa
TTITLE0=Ariñañara
TTITLE1=Remember Me 
TTITLE2=Pa' Gozar 
TTITLE3=Caravan
TTITLE4=Eres Mi Coco 
TTITLE5=Dance City 
TTITLE6=Llévatela 
TTITLE7=Tu Me Estas Volviendo Loco 
TTITLE8=Lo Que Traigo Es Sabroso 
TTITLE9=To Be With You 
TTITLE10=Mulato Rumbero 
TTITLE11=Hot and Heavy
EXTD=YEAR: 1994
EXTT0=
EXTT1=
EXTT2=
EXTT3=
EXTT4=
EXTT5=
EXTT6=
EXTT7=
EXTT8=
EXTT9=
EXTT10=
EXTT11=
PLAYORDER=
